<svg width="116" height="21" viewBox="0 0 116 21" fill="none" xmlns="http://www.w3.org/2000/svg">
<path fill-rule="evenodd" clip-rule="evenodd" d="M31.0596 0.74585L21.1943 20.0317H11.9279L16.0565 12.0388H15.8713C12.4652 16.4604 7.38316 19.3711 0.14209 20.0317V12.1494C0.14209 12.1494 4.77438 11.8758 7.49757 9.01277H0.14209V0.746002H8.40886V7.5453L8.5944 7.54454L11.9725 0.746002H18.2245V7.50218L18.4099 7.50188L21.9148 0.74585H31.0596ZM84.8565 17.9029H87.5189V2.62086H84.8565V17.9029ZM70.1789 17.7469C70.7575 17.9874 71.3459 18.1077 71.9441 18.1077C72.9323 18.1077 73.8165 17.8672 74.5967 17.386C75.3768 16.905 75.9816 16.2418 76.4107 15.3966C76.8398 14.5449 77.0543 13.5793 77.0543 12.5001C77.0543 11.4208 76.8332 10.4554 76.3912 9.60365C75.949 8.75194 75.3346 8.09202 74.5479 7.6239C73.7612 7.14929 72.8672 6.91524 71.866 6.92173C71.2289 6.92173 70.6177 7.04527 70.0325 7.29233C69.4474 7.53939 68.9598 7.89048 68.5697 8.34559C68.5396 8.38024 68.5103 8.41523 68.4819 8.45058V2.63067H65.8098V17.903H68.4624L68.4571 16.4763C68.5257 16.5604 68.5991 16.6426 68.6769 16.7229C69.0995 17.1586 69.6002 17.4998 70.1789 17.7469ZM72.9095 15.2796C72.4739 15.5462 71.9765 15.6794 71.4174 15.6794C70.8647 15.6794 70.3576 15.5428 69.896 15.2698C69.4343 14.9902 69.0671 14.6099 68.7939 14.1288C68.5274 13.6477 68.3941 13.1015 68.3941 12.4903C68.3877 11.8792 68.5176 11.3331 68.7842 10.852C69.0573 10.3643 69.4246 9.98724 69.8863 9.72068C70.3478 9.44761 70.8583 9.31433 71.4174 9.32083C71.9765 9.31433 72.4739 9.44436 72.9095 9.71093C73.3516 9.97099 73.6897 10.3448 73.9238 10.8325C74.1643 11.3136 74.2846 11.8662 74.2846 12.4903C74.2846 13.1145 74.1643 13.6672 73.9238 14.1483C73.6897 14.6294 73.3516 15.0065 72.9095 15.2796ZM34.9166 3.54738H37.9594L40.6812 13.4877L43.5768 3.54738H46.1124L49.2527 13.2882L51.8664 3.54738H54.6555L50.54 17.903H47.9166L44.7233 8.38692L41.7921 17.903H39.1394L34.9166 3.54738ZM59.1492 18.1565C58.0893 18.163 57.1336 17.9289 56.2819 17.4543C55.4367 16.9732 54.7703 16.3067 54.2826 15.455C53.8016 14.6034 53.561 13.6314 53.561 12.539C53.561 11.4793 53.8081 10.5203 54.3022 9.66212C54.7963 8.8039 55.4659 8.13424 56.3112 7.65312C57.1564 7.172 58.0991 6.93144 59.1393 6.93144C60.3097 6.93144 61.3336 7.1915 62.2114 7.71163C63.0956 8.23176 63.7555 8.9697 64.1911 9.92543C64.6332 10.8747 64.7925 11.9637 64.669 13.1925H56.3154C56.3387 13.682 56.4609 14.1274 56.6818 14.5286C56.9289 14.9707 57.2734 15.3152 57.7155 15.5623C58.1577 15.8094 58.6517 15.9329 59.1979 15.9329C59.614 15.9264 60.0009 15.8549 60.3584 15.7184C60.7161 15.5754 61.0183 15.3836 61.2654 15.1429C61.519 14.9024 61.6978 14.6294 61.8018 14.3238H64.591C64.4219 15.0715 64.0839 15.7379 63.5768 16.323C63.0696 16.9017 62.4325 17.3535 61.6652 17.6786C60.8981 18.0037 60.0594 18.163 59.1492 18.1565ZM56.6915 10.5106C56.5358 10.7823 56.4277 11.0748 56.3676 11.3883H61.9051C61.865 10.9923 61.7427 10.6315 61.5385 10.3058C61.3044 9.92218 60.9858 9.62636 60.5828 9.41831C60.1797 9.20375 59.7246 9.09648 59.2174 9.09648C58.6778 9.09648 58.1869 9.22001 57.7448 9.46707C57.3027 9.71413 56.9516 10.062 56.6915 10.5106ZM79.0148 7.15577C79.0148 6.28456 79.2131 5.51086 79.6097 4.83469C80.0062 4.15203 80.5622 3.62214 81.2774 3.24505C81.999 2.86145 82.841 2.66315 83.8032 2.65016V5.01999C83.3546 5.02649 82.971 5.12076 82.6525 5.30281C82.3404 5.47836 82.0998 5.73517 81.9308 6.07325C81.7752 6.3845 81.6912 6.74534 81.6789 7.15577H83.7447V9.40858H81.6773V17.903H79.0148V9.40858H77.2984V7.15577H79.0148ZM94.2867 18.1369C93.2009 18.1369 92.2289 17.8996 91.3707 17.425C90.519 16.9439 89.8493 16.2808 89.3617 15.4355C88.8805 14.5838 88.64 13.6183 88.64 12.539C88.64 11.4533 88.8805 10.4845 89.3617 9.63281C89.8493 8.77459 90.519 8.10818 91.3707 7.63357C92.2289 7.15895 93.2009 6.92164 94.2867 6.92164C95.3789 6.92164 96.3542 7.15895 97.2123 7.63357C98.0771 8.10818 98.7501 8.77135 99.2311 9.62306C99.7122 10.4748 99.9561 11.4468 99.9626 12.539C99.9561 13.6183 99.7122 14.5838 99.2311 15.4355C98.7565 16.2808 98.0868 16.9439 97.2221 17.425C96.3574 17.8996 95.3789 18.1369 94.2867 18.1369ZM94.2867 15.6891C94.8588 15.6891 95.3659 15.559 95.808 15.299C96.2502 15.0324 96.5914 14.6618 96.8321 14.1872C97.0726 13.7061 97.1928 13.1567 97.1928 12.539C97.1928 11.9149 97.0726 11.3622 96.8321 10.8811C96.5914 10.4 96.2502 10.0294 95.808 9.76935C95.3659 9.50278 94.8588 9.3695 94.2867 9.3695C93.7211 9.3695 93.2172 9.50278 92.775 9.76935C92.3395 10.0294 92.0013 10.4 91.7608 10.8811C91.5202 11.3622 91.4032 11.9149 91.4097 12.539C91.4097 13.1567 91.53 13.7061 91.7705 14.1872C92.0176 14.6618 92.3556 15.0324 92.7848 15.299C93.2204 15.559 93.7211 15.6891 94.2867 15.6891ZM102.84 7.15575H99.8749L103.083 17.903H105.678L107.788 11.0387L110.066 17.903H112.621L115.84 7.15575H113.158L111.332 13.8452L109.315 7.15575H106.721L104.713 13.9925L102.84 7.15575Z" fill="black"/>
<path d="M31.0596 0.74585L21.1943 20.0317H11.9279L16.0565 12.0388H15.8713C12.4652 16.4604 7.38316 19.3711 0.14209 20.0317V12.1494C0.14209 12.1494 4.77438 11.8758 7.49757 9.01277H0.14209V0.746002H8.40886V7.5453L8.5944 7.54454L11.9725 0.746002H18.2245V7.50218L18.4099 7.50188L21.9148 0.74585H31.0596ZM84.8565 17.9029H87.5189V2.62086H84.8565V17.9029ZM70.1789 17.7469C70.7575 17.9874 71.3459 18.1077 71.9441 18.1077C72.9323 18.1077 73.8165 17.8672 74.5967 17.386C75.3768 16.905 75.9816 16.2418 76.4107 15.3966C76.8398 14.5449 77.0543 13.5793 77.0543 12.5001C77.0543 11.4208 76.8332 10.4554 76.3912 9.60365C75.949 8.75194 75.3346 8.09202 74.5479 7.6239C73.7612 7.14929 72.8672 6.91524 71.866 6.92173C71.2289 6.92173 70.6177 7.04527 70.0325 7.29233C69.4474 7.53939 68.9598 7.89048 68.5697 8.34559C68.5396 8.38024 68.5103 8.41523 68.4819 8.45058V2.63067H65.8098V17.903H68.4624L68.4571 16.4763C68.5257 16.5604 68.5991 16.6426 68.6769 16.7229C69.0995 17.1586 69.6002 17.4998 70.1789 17.7469ZM72.9095 15.2796C72.4739 15.5462 71.9765 15.6794 71.4174 15.6794C70.8647 15.6794 70.3576 15.5428 69.896 15.2698C69.4343 14.9902 69.0671 14.6099 68.7939 14.1288C68.5274 13.6477 68.3941 13.1015 68.3941 12.4903C68.3877 11.8792 68.5176 11.3331 68.7842 10.852C69.0573 10.3643 69.4246 9.98724 69.8863 9.72068C70.3478 9.44761 70.8583 9.31433 71.4174 9.32083C71.9765 9.31433 72.4739 9.44436 72.9095 9.71093C73.3516 9.97099 73.6897 10.3448 73.9238 10.8325C74.1643 11.3136 74.2846 11.8662 74.2846 12.4903C74.2846 13.1145 74.1643 13.6672 73.9238 14.1483C73.6897 14.6294 73.3516 15.0065 72.9095 15.2796ZM34.9166 3.54738H37.9594L40.6812 13.4877L43.5768 3.54738H46.1124L49.2527 13.2882L51.8664 3.54738H54.6555L50.54 17.903H47.9166L44.7233 8.38692L41.7921 17.903H39.1394L34.9166 3.54738ZM59.1492 18.1565C58.0893 18.163 57.1336 17.9289 56.2819 17.4543C55.4367 16.9732 54.7703 16.3067 54.2826 15.455C53.8016 14.6034 53.561 13.6314 53.561 12.539C53.561 11.4793 53.8081 10.5203 54.3022 9.66212C54.7963 8.8039 55.4659 8.13424 56.3112 7.65312C57.1564 7.172 58.0991 6.93144 59.1393 6.93144C60.3097 6.93144 61.3336 7.1915 62.2114 7.71163C63.0956 8.23176 63.7555 8.9697 64.1911 9.92543C64.6332 10.8747 64.7925 11.9637 64.669 13.1925H56.3154C56.3387 13.682 56.4609 14.1274 56.6818 14.5286C56.9289 14.9707 57.2734 15.3152 57.7155 15.5623C58.1577 15.8094 58.6517 15.9329 59.1979 15.9329C59.614 15.9264 60.0009 15.8549 60.3584 15.7184C60.7161 15.5754 61.0183 15.3836 61.2654 15.1429C61.519 14.9024 61.6978 14.6294 61.8018 14.3238H64.591C64.4219 15.0715 64.0839 15.7379 63.5768 16.323C63.0696 16.9017 62.4325 17.3535 61.6652 17.6786C60.8981 18.0037 60.0594 18.163 59.1492 18.1565ZM56.6915 10.5106C56.5358 10.7823 56.4277 11.0748 56.3676 11.3883H61.9051C61.865 10.9923 61.7427 10.6315 61.5385 10.3058C61.3044 9.92218 60.9858 9.62636 60.5828 9.41831C60.1797 9.20375 59.7246 9.09648 59.2174 9.09648C58.6778 9.09648 58.1869 9.22001 57.7448 9.46707C57.3027 9.71413 56.9516 10.062 56.6915 10.5106ZM79.0148 7.15577C79.0148 6.28456 79.2131 5.51086 79.6097 4.83469C80.0062 4.15203 80.5622 3.62214 81.2774 3.24505C81.999 2.86145 82.841 2.66315 83.8032 2.65016V5.01999C83.3546 5.02649 82.971 5.12076 82.6525 5.30281C82.3404 5.47836 82.0998 5.73517 81.9308 6.07325C81.7752 6.3845 81.6912 6.74534 81.6789 7.15577H83.7447V9.40858H81.6773V17.903H79.0148V9.40858H77.2984V7.15577H79.0148ZM94.2867 18.1369C93.2009 18.1369 92.2289 17.8996 91.3707 17.425C90.519 16.9439 89.8493 16.2808 89.3617 15.4355C88.8805 14.5838 88.64 13.6183 88.64 12.539C88.64 11.4533 88.8805 10.4845 89.3617 9.63281C89.8493 8.77459 90.519 8.10818 91.3707 7.63357C92.2289 7.15895 93.2009 6.92164 94.2867 6.92164C95.3789 6.92164 96.3542 7.15895 97.2123 7.63357C98.0771 8.10818 98.7501 8.77135 99.2311 9.62306C99.7122 10.4748 99.9561 11.4468 99.9626 12.539C99.9561 13.6183 99.7122 14.5838 99.2311 15.4355C98.7565 16.2808 98.0868 16.9439 97.2221 17.425C96.3574 17.8996 95.3789 18.1369 94.2867 18.1369ZM94.2867 15.6891C94.8588 15.6891 95.3659 15.559 95.808 15.299C96.2502 15.0324 96.5914 14.6618 96.8321 14.1872C97.0726 13.7061 97.1928 13.1567 97.1928 12.539C97.1928 11.9149 97.0726 11.3622 96.8321 10.8811C96.5914 10.4 96.2502 10.0294 95.808 9.76935C95.3659 9.50278 94.8588 9.3695 94.2867 9.3695C93.7211 9.3695 93.2172 9.50278 92.775 9.76935C92.3395 10.0294 92.0013 10.4 91.7608 10.8811C91.5202 11.3622 91.4032 11.9149 91.4097 12.539C91.4097 13.1567 91.53 13.7061 91.7705 14.1872C92.0176 14.6618 92.3556 15.0324 92.7848 15.299C93.2204 15.559 93.7211 15.6891 94.2867 15.6891ZM102.84 7.15575H99.8749L103.083 17.903H105.678L107.788 11.0387L110.066 17.903H112.621L115.84 7.15575H113.158L111.332 13.8452L109.315 7.15575H106.721L104.713 13.9925L102.84 7.15575Z" fill="black"/>
<path fill-rule="evenodd" clip-rule="evenodd" d="M31.0596 0.74585L21.1943 20.0317H11.9279L16.0565 12.0388H15.8713C12.4652 16.4604 7.38316 19.3711 0.14209 20.0317V12.1494C0.14209 12.1494 4.77438 11.8758 7.49757 9.01277H0.14209V0.746002H8.40886V7.5453L8.5944 7.54454L11.9725 0.746002H18.2245V7.50218L18.4099 7.50188L21.9148 0.74585H31.0596ZM84.8565 17.9029H87.5189V2.62086H84.8565V17.9029ZM70.1789 17.7469C70.7575 17.9874 71.3459 18.1077 71.9441 18.1077C72.9323 18.1077 73.8165 17.8672 74.5967 17.386C75.3768 16.905 75.9816 16.2418 76.4107 15.3966C76.8398 14.5449 77.0543 13.5793 77.0543 12.5001C77.0543 11.4208 76.8332 10.4554 76.3912 9.60365C75.949 8.75194 75.3346 8.09202 74.5479 7.6239C73.7612 7.14929 72.8672 6.91524 71.866 6.92173C71.2289 6.92173 70.6177 7.04527 70.0325 7.29233C69.4474 7.53939 68.9598 7.89048 68.5697 8.34559C68.5396 8.38024 68.5103 8.41523 68.4819 8.45058V2.63067H65.8098V17.903H68.4624L68.4571 16.4763C68.5257 16.5604 68.5991 16.6426 68.6769 16.7229C69.0995 17.1586 69.6002 17.4998 70.1789 17.7469ZM72.9095 15.2796C72.4739 15.5462 71.9765 15.6794 71.4174 15.6794C70.8647 15.6794 70.3576 15.5428 69.896 15.2698C69.4343 14.9902 69.0671 14.6099 68.7939 14.1288C68.5274 13.6477 68.3941 13.1015 68.3941 12.4903C68.3877 11.8792 68.5176 11.3331 68.7842 10.852C69.0573 10.3643 69.4246 9.98724 69.8863 9.72068C70.3478 9.44761 70.8583 9.31433 71.4174 9.32083C71.9765 9.31433 72.4739 9.44436 72.9095 9.71093C73.3516 9.97099 73.6897 10.3448 73.9238 10.8325C74.1643 11.3136 74.2846 11.8662 74.2846 12.4903C74.2846 13.1145 74.1643 13.6672 73.9238 14.1483C73.6897 14.6294 73.3516 15.0065 72.9095 15.2796ZM34.9166 3.54738H37.9594L40.6812 13.4877L43.5768 3.54738H46.1124L49.2527 13.2882L51.8664 3.54738H54.6555L50.54 17.903H47.9166L44.7233 8.38692L41.7921 17.903H39.1394L34.9166 3.54738ZM59.1492 18.1565C58.0893 18.163 57.1336 17.9289 56.2819 17.4543C55.4367 16.9732 54.7703 16.3067 54.2826 15.455C53.8016 14.6034 53.561 13.6314 53.561 12.539C53.561 11.4793 53.8081 10.5203 54.3022 9.66212C54.7963 8.8039 55.4659 8.13424 56.3112 7.65312C57.1564 7.172 58.0991 6.93144 59.1393 6.93144C60.3097 6.93144 61.3336 7.1915 62.2114 7.71163C63.0956 8.23176 63.7555 8.9697 64.1911 9.92543C64.6332 10.8747 64.7925 11.9637 64.669 13.1925H56.3154C56.3387 13.682 56.4609 14.1274 56.6818 14.5286C56.9289 14.9707 57.2734 15.3152 57.7155 15.5623C58.1577 15.8094 58.6517 15.9329 59.1979 15.9329C59.614 15.9264 60.0009 15.8549 60.3584 15.7184C60.7161 15.5754 61.0183 15.3836 61.2654 15.1429C61.519 14.9024 61.6978 14.6294 61.8018 14.3238H64.591C64.4219 15.0715 64.0839 15.7379 63.5768 16.323C63.0696 16.9017 62.4325 17.3535 61.6652 17.6786C60.8981 18.0037 60.0594 18.163 59.1492 18.1565ZM56.6915 10.5106C56.5358 10.7823 56.4277 11.0748 56.3676 11.3883H61.9051C61.865 10.9923 61.7427 10.6315 61.5385 10.3058C61.3044 9.92218 60.9858 9.62636 60.5828 9.41831C60.1797 9.20375 59.7246 9.09648 59.2174 9.09648C58.6778 9.09648 58.1869 9.22001 57.7448 9.46707C57.3027 9.71413 56.9516 10.062 56.6915 10.5106ZM79.0148 7.15577C79.0148 6.28456 79.2131 5.51086 79.6097 4.83469C80.0062 4.15203 80.5622 3.62214 81.2774 3.24505C81.999 2.86145 82.841 2.66315 83.8032 2.65016V5.01999C83.3546 5.02649 82.971 5.12076 82.6525 5.30281C82.3404 5.47836 82.0998 5.73517 81.9308 6.07325C81.7752 6.3845 81.6912 6.74534 81.6789 7.15577H83.7447V9.40858H81.6773V17.903H79.0148V9.40858H77.2984V7.15577H79.0148ZM94.2867 18.1369C93.2009 18.1369 92.2289 17.8996 91.3707 17.425C90.519 16.9439 89.8493 16.2808 89.3617 15.4355C88.8805 14.5838 88.64 13.6183 88.64 12.539C88.64 11.4533 88.8805 10.4845 89.3617 9.63281C89.8493 8.77459 90.519 8.10818 91.3707 7.63357C92.2289 7.15895 93.2009 6.92164 94.2867 6.92164C95.3789 6.92164 96.3542 7.15895 97.2123 7.63357C98.0771 8.10818 98.7501 8.77135 99.2311 9.62306C99.7122 10.4748 99.9561 11.4468 99.9626 12.539C99.9561 13.6183 99.7122 14.5838 99.2311 15.4355C98.7565 16.2808 98.0868 16.9439 97.2221 17.425C96.3574 17.8996 95.3789 18.1369 94.2867 18.1369ZM94.2867 15.6891C94.8588 15.6891 95.3659 15.559 95.808 15.299C96.2502 15.0324 96.5914 14.6618 96.8321 14.1872C97.0726 13.7061 97.1928 13.1567 97.1928 12.539C97.1928 11.9149 97.0726 11.3622 96.8321 10.8811C96.5914 10.4 96.2502 10.0294 95.808 9.76935C95.3659 9.50278 94.8588 9.3695 94.2867 9.3695C93.7211 9.3695 93.2172 9.50278 92.775 9.76935C92.3395 10.0294 92.0013 10.4 91.7608 10.8811C91.5202 11.3622 91.4032 11.9149 91.4097 12.539C91.4097 13.1567 91.53 13.7061 91.7705 14.1872C92.0176 14.6618 92.3556 15.0324 92.7848 15.299C93.2204 15.559 93.7211 15.6891 94.2867 15.6891ZM102.84 7.15575H99.8749L103.083 17.903H105.678L107.788 11.0387L110.066 17.903H112.621L115.84 7.15575H113.158L111.332 13.8452L109.315 7.15575H106.721L104.713 13.9925L102.84 7.15575Z" fill="black"/>
<path d="M31.0596 0.74585L21.1943 20.0317H11.9279L16.0565 12.0388H15.8713C12.4652 16.4604 7.38316 19.3711 0.14209 20.0317V12.1494C0.14209 12.1494 4.77438 11.8758 7.49757 9.01277H0.14209V0.746002H8.40886V7.5453L8.5944 7.54454L11.9725 0.746002H18.2245V7.50218L18.4099 7.50188L21.9148 0.74585H31.0596ZM84.8565 17.9029H87.5189V2.62086H84.8565V17.9029ZM70.1789 17.7469C70.7575 17.9874 71.3459 18.1077 71.9441 18.1077C72.9323 18.1077 73.8165 17.8672 74.5967 17.386C75.3768 16.905 75.9816 16.2418 76.4107 15.3966C76.8398 14.5449 77.0543 13.5793 77.0543 12.5001C77.0543 11.4208 76.8332 10.4554 76.3912 9.60365C75.949 8.75194 75.3346 8.09202 74.5479 7.6239C73.7612 7.14929 72.8672 6.91524 71.866 6.92173C71.2289 6.92173 70.6177 7.04527 70.0325 7.29233C69.4474 7.53939 68.9598 7.89048 68.5697 8.34559C68.5396 8.38024 68.5103 8.41523 68.4819 8.45058V2.63067H65.8098V17.903H68.4624L68.4571 16.4763C68.5257 16.5604 68.5991 16.6426 68.6769 16.7229C69.0995 17.1586 69.6002 17.4998 70.1789 17.7469ZM72.9095 15.2796C72.4739 15.5462 71.9765 15.6794 71.4174 15.6794C70.8647 15.6794 70.3576 15.5428 69.896 15.2698C69.4343 14.9902 69.0671 14.6099 68.7939 14.1288C68.5274 13.6477 68.3941 13.1015 68.3941 12.4903C68.3877 11.8792 68.5176 11.3331 68.7842 10.852C69.0573 10.3643 69.4246 9.98724 69.8863 9.72068C70.3478 9.44761 70.8583 9.31433 71.4174 9.32083C71.9765 9.31433 72.4739 9.44436 72.9095 9.71093C73.3516 9.97099 73.6897 10.3448 73.9238 10.8325C74.1643 11.3136 74.2846 11.8662 74.2846 12.4903C74.2846 13.1145 74.1643 13.6672 73.9238 14.1483C73.6897 14.6294 73.3516 15.0065 72.9095 15.2796ZM34.9166 3.54738H37.9594L40.6812 13.4877L43.5768 3.54738H46.1124L49.2527 13.2882L51.8664 3.54738H54.6555L50.54 17.903H47.9166L44.7233 8.38692L41.7921 17.903H39.1394L34.9166 3.54738ZM59.1492 18.1565C58.0893 18.163 57.1336 17.9289 56.2819 17.4543C55.4367 16.9732 54.7703 16.3067 54.2826 15.455C53.8016 14.6034 53.561 13.6314 53.561 12.539C53.561 11.4793 53.8081 10.5203 54.3022 9.66212C54.7963 8.8039 55.4659 8.13424 56.3112 7.65312C57.1564 7.172 58.0991 6.93144 59.1393 6.93144C60.3097 6.93144 61.3336 7.1915 62.2114 7.71163C63.0956 8.23176 63.7555 8.9697 64.1911 9.92543C64.6332 10.8747 64.7925 11.9637 64.669 13.1925H56.3154C56.3387 13.682 56.4609 14.1274 56.6818 14.5286C56.9289 14.9707 57.2734 15.3152 57.7155 15.5623C58.1577 15.8094 58.6517 15.9329 59.1979 15.9329C59.614 15.9264 60.0009 15.8549 60.3584 15.7184C60.7161 15.5754 61.0183 15.3836 61.2654 15.1429C61.519 14.9024 61.6978 14.6294 61.8018 14.3238H64.591C64.4219 15.0715 64.0839 15.7379 63.5768 16.323C63.0696 16.9017 62.4325 17.3535 61.6652 17.6786C60.8981 18.0037 60.0594 18.163 59.1492 18.1565ZM56.6915 10.5106C56.5358 10.7823 56.4277 11.0748 56.3676 11.3883H61.9051C61.865 10.9923 61.7427 10.6315 61.5385 10.3058C61.3044 9.92218 60.9858 9.62636 60.5828 9.41831C60.1797 9.20375 59.7246 9.09648 59.2174 9.09648C58.6778 9.09648 58.1869 9.22001 57.7448 9.46707C57.3027 9.71413 56.9516 10.062 56.6915 10.5106ZM79.0148 7.15577C79.0148 6.28456 79.2131 5.51086 79.6097 4.83469C80.0062 4.15203 80.5622 3.62214 81.2774 3.24505C81.999 2.86145 82.841 2.66315 83.8032 2.65016V5.01999C83.3546 5.02649 82.971 5.12076 82.6525 5.30281C82.3404 5.47836 82.0998 5.73517 81.9308 6.07325C81.7752 6.3845 81.6912 6.74534 81.6789 7.15577H83.7447V9.40858H81.6773V17.903H79.0148V9.40858H77.2984V7.15577H79.0148ZM94.2867 18.1369C93.2009 18.1369 92.2289 17.8996 91.3707 17.425C90.519 16.9439 89.8493 16.2808 89.3617 15.4355C88.8805 14.5838 88.64 13.6183 88.64 12.539C88.64 11.4533 88.8805 10.4845 89.3617 9.63281C89.8493 8.77459 90.519 8.10818 91.3707 7.63357C92.2289 7.15895 93.2009 6.92164 94.2867 6.92164C95.3789 6.92164 96.3542 7.15895 97.2123 7.63357C98.0771 8.10818 98.7501 8.77135 99.2311 9.62306C99.7122 10.4748 99.9561 11.4468 99.9626 12.539C99.9561 13.6183 99.7122 14.5838 99.2311 15.4355C98.7565 16.2808 98.0868 16.9439 97.2221 17.425C96.3574 17.8996 95.3789 18.1369 94.2867 18.1369ZM94.2867 15.6891C94.8588 15.6891 95.3659 15.559 95.808 15.299C96.2502 15.0324 96.5914 14.6618 96.8321 14.1872C97.0726 13.7061 97.1928 13.1567 97.1928 12.539C97.1928 11.9149 97.0726 11.3622 96.8321 10.8811C96.5914 10.4 96.2502 10.0294 95.808 9.76935C95.3659 9.50278 94.8588 9.3695 94.2867 9.3695C93.7211 9.3695 93.2172 9.50278 92.775 9.76935C92.3395 10.0294 92.0013 10.4 91.7608 10.8811C91.5202 11.3622 91.4032 11.9149 91.4097 12.539C91.4097 13.1567 91.53 13.7061 91.7705 14.1872C92.0176 14.6618 92.3556 15.0324 92.7848 15.299C93.2204 15.559 93.7211 15.6891 94.2867 15.6891ZM102.84 7.15575H99.8749L103.083 17.903H105.678L107.788 11.0387L110.066 17.903H112.621L115.84 7.15575H113.158L111.332 13.8452L109.315 7.15575H106.721L104.713 13.9925L102.84 7.15575Z" fill="black"/>
<path fill-rule="evenodd" clip-rule="evenodd" d="M31.0596 0.74585L21.1943 20.0317H11.9279L16.0565 12.0388H15.8713C12.4652 16.4604 7.38316 19.3711 0.14209 20.0317V12.1494C0.14209 12.1494 4.77438 11.8758 7.49757 9.01277H0.14209V0.746002H8.40886V7.5453L8.5944 7.54454L11.9725 0.746002H18.2245V7.50218L18.4099 7.50188L21.9148 0.74585H31.0596ZM84.8565 17.9029H87.5189V2.62086H84.8565V17.9029ZM70.1789 17.7469C70.7575 17.9874 71.3459 18.1077 71.9441 18.1077C72.9323 18.1077 73.8165 17.8672 74.5967 17.386C75.3768 16.905 75.9816 16.2418 76.4107 15.3966C76.8398 14.5449 77.0543 13.5793 77.0543 12.5001C77.0543 11.4208 76.8332 10.4554 76.3912 9.60365C75.949 8.75194 75.3346 8.09202 74.5479 7.6239C73.7612 7.14929 72.8672 6.91524 71.866 6.92173C71.2289 6.92173 70.6177 7.04527 70.0325 7.29233C69.4474 7.53939 68.9598 7.89048 68.5697 8.34559C68.5396 8.38024 68.5103 8.41523 68.4819 8.45058V2.63067H65.8098V17.903H68.4624L68.4571 16.4763C68.5257 16.5604 68.5991 16.6426 68.6769 16.7229C69.0995 17.1586 69.6002 17.4998 70.1789 17.7469ZM72.9095 15.2796C72.4739 15.5462 71.9765 15.6794 71.4174 15.6794C70.8647 15.6794 70.3576 15.5428 69.896 15.2698C69.4343 14.9902 69.0671 14.6099 68.7939 14.1288C68.5274 13.6477 68.3941 13.1015 68.3941 12.4903C68.3877 11.8792 68.5176 11.3331 68.7842 10.852C69.0573 10.3643 69.4246 9.98724 69.8863 9.72068C70.3478 9.44761 70.8583 9.31433 71.4174 9.32083C71.9765 9.31433 72.4739 9.44436 72.9095 9.71093C73.3516 9.97099 73.6897 10.3448 73.9238 10.8325C74.1643 11.3136 74.2846 11.8662 74.2846 12.4903C74.2846 13.1145 74.1643 13.6672 73.9238 14.1483C73.6897 14.6294 73.3516 15.0065 72.9095 15.2796ZM34.9166 3.54738H37.9594L40.6812 13.4877L43.5768 3.54738H46.1124L49.2527 13.2882L51.8664 3.54738H54.6555L50.54 17.903H47.9166L44.7233 8.38692L41.7921 17.903H39.1394L34.9166 3.54738ZM59.1492 18.1565C58.0893 18.163 57.1336 17.9289 56.2819 17.4543C55.4367 16.9732 54.7703 16.3067 54.2826 15.455C53.8016 14.6034 53.561 13.6314 53.561 12.539C53.561 11.4793 53.8081 10.5203 54.3022 9.66212C54.7963 8.8039 55.4659 8.13424 56.3112 7.65312C57.1564 7.172 58.0991 6.93144 59.1393 6.93144C60.3097 6.93144 61.3336 7.1915 62.2114 7.71163C63.0956 8.23176 63.7555 8.9697 64.1911 9.92543C64.6332 10.8747 64.7925 11.9637 64.669 13.1925H56.3154C56.3387 13.682 56.4609 14.1274 56.6818 14.5286C56.9289 14.9707 57.2734 15.3152 57.7155 15.5623C58.1577 15.8094 58.6517 15.9329 59.1979 15.9329C59.614 15.9264 60.0009 15.8549 60.3584 15.7184C60.7161 15.5754 61.0183 15.3836 61.2654 15.1429C61.519 14.9024 61.6978 14.6294 61.8018 14.3238H64.591C64.4219 15.0715 64.0839 15.7379 63.5768 16.323C63.0696 16.9017 62.4325 17.3535 61.6652 17.6786C60.8981 18.0037 60.0594 18.163 59.1492 18.1565ZM56.6915 10.5106C56.5358 10.7823 56.4277 11.0748 56.3676 11.3883H61.9051C61.865 10.9923 61.7427 10.6315 61.5385 10.3058C61.3044 9.92218 60.9858 9.62636 60.5828 9.41831C60.1797 9.20375 59.7246 9.09648 59.2174 9.09648C58.6778 9.09648 58.1869 9.22001 57.7448 9.46707C57.3027 9.71413 56.9516 10.062 56.6915 10.5106ZM79.0148 7.15577C79.0148 6.28456 79.2131 5.51086 79.6097 4.83469C80.0062 4.15203 80.5622 3.62214 81.2774 3.24505C81.999 2.86145 82.841 2.66315 83.8032 2.65016V5.01999C83.3546 5.02649 82.971 5.12076 82.6525 5.30281C82.3404 5.47836 82.0998 5.73517 81.9308 6.07325C81.7752 6.3845 81.6912 6.74534 81.6789 7.15577H83.7447V9.40858H81.6773V17.903H79.0148V9.40858H77.2984V7.15577H79.0148ZM94.2867 18.1369C93.2009 18.1369 92.2289 17.8996 91.3707 17.425C90.519 16.9439 89.8493 16.2808 89.3617 15.4355C88.8805 14.5838 88.64 13.6183 88.64 12.539C88.64 11.4533 88.8805 10.4845 89.3617 9.63281C89.8493 8.77459 90.519 8.10818 91.3707 7.63357C92.2289 7.15895 93.2009 6.92164 94.2867 6.92164C95.3789 6.92164 96.3542 7.15895 97.2123 7.63357C98.0771 8.10818 98.7501 8.77135 99.2311 9.62306C99.7122 10.4748 99.9561 11.4468 99.9626 12.539C99.9561 13.6183 99.7122 14.5838 99.2311 15.4355C98.7565 16.2808 98.0868 16.9439 97.2221 17.425C96.3574 17.8996 95.3789 18.1369 94.2867 18.1369ZM94.2867 15.6891C94.8588 15.6891 95.3659 15.559 95.808 15.299C96.2502 15.0324 96.5914 14.6618 96.8321 14.1872C97.0726 13.7061 97.1928 13.1567 97.1928 12.539C97.1928 11.9149 97.0726 11.3622 96.8321 10.8811C96.5914 10.4 96.2502 10.0294 95.808 9.76935C95.3659 9.50278 94.8588 9.3695 94.2867 9.3695C93.7211 9.3695 93.2172 9.50278 92.775 9.76935C92.3395 10.0294 92.0013 10.4 91.7608 10.8811C91.5202 11.3622 91.4032 11.9149 91.4097 12.539C91.4097 13.1567 91.53 13.7061 91.7705 14.1872C92.0176 14.6618 92.3556 15.0324 92.7848 15.299C93.2204 15.559 93.7211 15.6891 94.2867 15.6891ZM102.84 7.15575H99.8749L103.083 17.903H105.678L107.788 11.0387L110.066 17.903H112.621L115.84 7.15575H113.158L111.332 13.8452L109.315 7.15575H106.721L104.713 13.9925L102.84 7.15575Z" fill="black"/>
<path d="M31.0596 0.74585L21.1943 20.0317H11.9279L16.0565 12.0388H15.8713C12.4652 16.4604 7.38316 19.3711 0.14209 20.0317V12.1494C0.14209 12.1494 4.77438 11.8758 7.49757 9.01277H0.14209V0.746002H8.40886V7.5453L8.5944 7.54454L11.9725 0.746002H18.2245V7.50218L18.4099 7.50188L21.9148 0.74585H31.0596ZM84.8565 17.9029H87.5189V2.62086H84.8565V17.9029ZM70.1789 17.7469C70.7575 17.9874 71.3459 18.1077 71.9441 18.1077C72.9323 18.1077 73.8165 17.8672 74.5967 17.386C75.3768 16.905 75.9816 16.2418 76.4107 15.3966C76.8398 14.5449 77.0543 13.5793 77.0543 12.5001C77.0543 11.4208 76.8332 10.4554 76.3912 9.60365C75.949 8.75194 75.3346 8.09202 74.5479 7.6239C73.7612 7.14929 72.8672 6.91524 71.866 6.92173C71.2289 6.92173 70.6177 7.04527 70.0325 7.29233C69.4474 7.53939 68.9598 7.89048 68.5697 8.34559C68.5396 8.38024 68.5103 8.41523 68.4819 8.45058V2.63067H65.8098V17.903H68.4624L68.4571 16.4763C68.5257 16.5604 68.5991 16.6426 68.6769 16.7229C69.0995 17.1586 69.6002 17.4998 70.1789 17.7469ZM72.9095 15.2796C72.4739 15.5462 71.9765 15.6794 71.4174 15.6794C70.8647 15.6794 70.3576 15.5428 69.896 15.2698C69.4343 14.9902 69.0671 14.6099 68.7939 14.1288C68.5274 13.6477 68.3941 13.1015 68.3941 12.4903C68.3877 11.8792 68.5176 11.3331 68.7842 10.852C69.0573 10.3643 69.4246 9.98724 69.8863 9.72068C70.3478 9.44761 70.8583 9.31433 71.4174 9.32083C71.9765 9.31433 72.4739 9.44436 72.9095 9.71093C73.3516 9.97099 73.6897 10.3448 73.9238 10.8325C74.1643 11.3136 74.2846 11.8662 74.2846 12.4903C74.2846 13.1145 74.1643 13.6672 73.9238 14.1483C73.6897 14.6294 73.3516 15.0065 72.9095 15.2796ZM34.9166 3.54738H37.9594L40.6812 13.4877L43.5768 3.54738H46.1124L49.2527 13.2882L51.8664 3.54738H54.6555L50.54 17.903H47.9166L44.7233 8.38692L41.7921 17.903H39.1394L34.9166 3.54738ZM59.1492 18.1565C58.0893 18.163 57.1336 17.9289 56.2819 17.4543C55.4367 16.9732 54.7703 16.3067 54.2826 15.455C53.8016 14.6034 53.561 13.6314 53.561 12.539C53.561 11.4793 53.8081 10.5203 54.3022 9.66212C54.7963 8.8039 55.4659 8.13424 56.3112 7.65312C57.1564 7.172 58.0991 6.93144 59.1393 6.93144C60.3097 6.93144 61.3336 7.1915 62.2114 7.71163C63.0956 8.23176 63.7555 8.9697 64.1911 9.92543C64.6332 10.8747 64.7925 11.9637 64.669 13.1925H56.3154C56.3387 13.682 56.4609 14.1274 56.6818 14.5286C56.9289 14.9707 57.2734 15.3152 57.7155 15.5623C58.1577 15.8094 58.6517 15.9329 59.1979 15.9329C59.614 15.9264 60.0009 15.8549 60.3584 15.7184C60.7161 15.5754 61.0183 15.3836 61.2654 15.1429C61.519 14.9024 61.6978 14.6294 61.8018 14.3238H64.591C64.4219 15.0715 64.0839 15.7379 63.5768 16.323C63.0696 16.9017 62.4325 17.3535 61.6652 17.6786C60.8981 18.0037 60.0594 18.163 59.1492 18.1565ZM56.6915 10.5106C56.5358 10.7823 56.4277 11.0748 56.3676 11.3883H61.9051C61.865 10.9923 61.7427 10.6315 61.5385 10.3058C61.3044 9.92218 60.9858 9.62636 60.5828 9.41831C60.1797 9.20375 59.7246 9.09648 59.2174 9.09648C58.6778 9.09648 58.1869 9.22001 57.7448 9.46707C57.3027 9.71413 56.9516 10.062 56.6915 10.5106ZM79.0148 7.15577C79.0148 6.28456 79.2131 5.51086 79.6097 4.83469C80.0062 4.15203 80.5622 3.62214 81.2774 3.24505C81.999 2.86145 82.841 2.66315 83.8032 2.65016V5.01999C83.3546 5.02649 82.971 5.12076 82.6525 5.30281C82.3404 5.47836 82.0998 5.73517 81.9308 6.07325C81.7752 6.3845 81.6912 6.74534 81.6789 7.15577H83.7447V9.40858H81.6773V17.903H79.0148V9.40858H77.2984V7.15577H79.0148ZM94.2867 18.1369C93.2009 18.1369 92.2289 17.8996 91.3707 17.425C90.519 16.9439 89.8493 16.2808 89.3617 15.4355C88.8805 14.5838 88.64 13.6183 88.64 12.539C88.64 11.4533 88.8805 10.4845 89.3617 9.63281C89.8493 8.77459 90.519 8.10818 91.3707 7.63357C92.2289 7.15895 93.2009 6.92164 94.2867 6.92164C95.3789 6.92164 96.3542 7.15895 97.2123 7.63357C98.0771 8.10818 98.7501 8.77135 99.2311 9.62306C99.7122 10.4748 99.9561 11.4468 99.9626 12.539C99.9561 13.6183 99.7122 14.5838 99.2311 15.4355C98.7565 16.2808 98.0868 16.9439 97.2221 17.425C96.3574 17.8996 95.3789 18.1369 94.2867 18.1369ZM94.2867 15.6891C94.8588 15.6891 95.3659 15.559 95.808 15.299C96.2502 15.0324 96.5914 14.6618 96.8321 14.1872C97.0726 13.7061 97.1928 13.1567 97.1928 12.539C97.1928 11.9149 97.0726 11.3622 96.8321 10.8811C96.5914 10.4 96.2502 10.0294 95.808 9.76935C95.3659 9.50278 94.8588 9.3695 94.2867 9.3695C93.7211 9.3695 93.2172 9.50278 92.775 9.76935C92.3395 10.0294 92.0013 10.4 91.7608 10.8811C91.5202 11.3622 91.4032 11.9149 91.4097 12.539C91.4097 13.1567 91.53 13.7061 91.7705 14.1872C92.0176 14.6618 92.3556 15.0324 92.7848 15.299C93.2204 15.559 93.7211 15.6891 94.2867 15.6891ZM102.84 7.15575H99.8749L103.083 17.903H105.678L107.788 11.0387L110.066 17.903H112.621L115.84 7.15575H113.158L111.332 13.8452L109.315 7.15575H106.721L104.713 13.9925L102.84 7.15575Z" fill="black"/>
<path fill-rule="evenodd" clip-rule="evenodd" d="M31.0596 0.74585L21.1943 20.0317H11.9279L16.0565 12.0388H15.8713C12.4652 16.4604 7.38316 19.3711 0.14209 20.0317V12.1494C0.14209 12.1494 4.77438 11.8758 7.49757 9.01277H0.14209V0.746002H8.40886V7.5453L8.5944 7.54454L11.9725 0.746002H18.2245V7.50218L18.4099 7.50188L21.9148 0.74585H31.0596ZM84.8565 17.9029H87.5189V2.62086H84.8565V17.9029ZM70.1789 17.7469C70.7575 17.9874 71.3459 18.1077 71.9441 18.1077C72.9323 18.1077 73.8165 17.8672 74.5967 17.386C75.3768 16.905 75.9816 16.2418 76.4107 15.3966C76.8398 14.5449 77.0543 13.5793 77.0543 12.5001C77.0543 11.4208 76.8332 10.4554 76.3912 9.60365C75.949 8.75194 75.3346 8.09202 74.5479 7.6239C73.7612 7.14929 72.8672 6.91524 71.866 6.92173C71.2289 6.92173 70.6177 7.04527 70.0325 7.29233C69.4474 7.53939 68.9598 7.89048 68.5697 8.34559C68.5396 8.38024 68.5103 8.41523 68.4819 8.45058V2.63067H65.8098V17.903H68.4624L68.4571 16.4763C68.5257 16.5604 68.5991 16.6426 68.6769 16.7229C69.0995 17.1586 69.6002 17.4998 70.1789 17.7469ZM72.9095 15.2796C72.4739 15.5462 71.9765 15.6794 71.4174 15.6794C70.8647 15.6794 70.3576 15.5428 69.896 15.2698C69.4343 14.9902 69.0671 14.6099 68.7939 14.1288C68.5274 13.6477 68.3941 13.1015 68.3941 12.4903C68.3877 11.8792 68.5176 11.3331 68.7842 10.852C69.0573 10.3643 69.4246 9.98724 69.8863 9.72068C70.3478 9.44761 70.8583 9.31433 71.4174 9.32083C71.9765 9.31433 72.4739 9.44436 72.9095 9.71093C73.3516 9.97099 73.6897 10.3448 73.9238 10.8325C74.1643 11.3136 74.2846 11.8662 74.2846 12.4903C74.2846 13.1145 74.1643 13.6672 73.9238 14.1483C73.6897 14.6294 73.3516 15.0065 72.9095 15.2796ZM34.9166 3.54738H37.9594L40.6812 13.4877L43.5768 3.54738H46.1124L49.2527 13.2882L51.8664 3.54738H54.6555L50.54 17.903H47.9166L44.7233 8.38692L41.7921 17.903H39.1394L34.9166 3.54738ZM59.1492 18.1565C58.0893 18.163 57.1336 17.9289 56.2819 17.4543C55.4367 16.9732 54.7703 16.3067 54.2826 15.455C53.8016 14.6034 53.561 13.6314 53.561 12.539C53.561 11.4793 53.8081 10.5203 54.3022 9.66212C54.7963 8.8039 55.4659 8.13424 56.3112 7.65312C57.1564 7.172 58.0991 6.93144 59.1393 6.93144C60.3097 6.93144 61.3336 7.1915 62.2114 7.71163C63.0956 8.23176 63.7555 8.9697 64.1911 9.92543C64.6332 10.8747 64.7925 11.9637 64.669 13.1925H56.3154C56.3387 13.682 56.4609 14.1274 56.6818 14.5286C56.9289 14.9707 57.2734 15.3152 57.7155 15.5623C58.1577 15.8094 58.6517 15.9329 59.1979 15.9329C59.614 15.9264 60.0009 15.8549 60.3584 15.7184C60.7161 15.5754 61.0183 15.3836 61.2654 15.1429C61.519 14.9024 61.6978 14.6294 61.8018 14.3238H64.591C64.4219 15.0715 64.0839 15.7379 63.5768 16.323C63.0696 16.9017 62.4325 17.3535 61.6652 17.6786C60.8981 18.0037 60.0594 18.163 59.1492 18.1565ZM56.6915 10.5106C56.5358 10.7823 56.4277 11.0748 56.3676 11.3883H61.9051C61.865 10.9923 61.7427 10.6315 61.5385 10.3058C61.3044 9.92218 60.9858 9.62636 60.5828 9.41831C60.1797 9.20375 59.7246 9.09648 59.2174 9.09648C58.6778 9.09648 58.1869 9.22001 57.7448 9.46707C57.3027 9.71413 56.9516 10.062 56.6915 10.5106ZM79.0148 7.15577C79.0148 6.28456 79.2131 5.51086 79.6097 4.83469C80.0062 4.15203 80.5622 3.62214 81.2774 3.24505C81.999 2.86145 82.841 2.66315 83.8032 2.65016V5.01999C83.3546 5.02649 82.971 5.12076 82.6525 5.30281C82.3404 5.47836 82.0998 5.73517 81.9308 6.07325C81.7752 6.3845 81.6912 6.74534 81.6789 7.15577H83.7447V9.40858H81.6773V17.903H79.0148V9.40858H77.2984V7.15577H79.0148ZM94.2867 18.1369C93.2009 18.1369 92.2289 17.8996 91.3707 17.425C90.519 16.9439 89.8493 16.2808 89.3617 15.4355C88.8805 14.5838 88.64 13.6183 88.64 12.539C88.64 11.4533 88.8805 10.4845 89.3617 9.63281C89.8493 8.77459 90.519 8.10818 91.3707 7.63357C92.2289 7.15895 93.2009 6.92164 94.2867 6.92164C95.3789 6.92164 96.3542 7.15895 97.2123 7.63357C98.0771 8.10818 98.7501 8.77135 99.2311 9.62306C99.7122 10.4748 99.9561 11.4468 99.9626 12.539C99.9561 13.6183 99.7122 14.5838 99.2311 15.4355C98.7565 16.2808 98.0868 16.9439 97.2221 17.425C96.3574 17.8996 95.3789 18.1369 94.2867 18.1369ZM94.2867 15.6891C94.8588 15.6891 95.3659 15.559 95.808 15.299C96.2502 15.0324 96.5914 14.6618 96.8321 14.1872C97.0726 13.7061 97.1928 13.1567 97.1928 12.539C97.1928 11.9149 97.0726 11.3622 96.8321 10.8811C96.5914 10.4 96.2502 10.0294 95.808 9.76935C95.3659 9.50278 94.8588 9.3695 94.2867 9.3695C93.7211 9.3695 93.2172 9.50278 92.775 9.76935C92.3395 10.0294 92.0013 10.4 91.7608 10.8811C91.5202 11.3622 91.4032 11.9149 91.4097 12.539C91.4097 13.1567 91.53 13.7061 91.7705 14.1872C92.0176 14.6618 92.3556 15.0324 92.7848 15.299C93.2204 15.559 93.7211 15.6891 94.2867 15.6891ZM102.84 7.15575H99.8749L103.083 17.903H105.678L107.788 11.0387L110.066 17.903H112.621L115.84 7.15575H113.158L111.332 13.8452L109.315 7.15575H106.721L104.713 13.9925L102.84 7.15575Z" fill="black"/>
<path d="M31.0596 0.74585L21.1943 20.0317H11.9279L16.0565 12.0388H15.8713C12.4652 16.4604 7.38316 19.3711 0.14209 20.0317V12.1494C0.14209 12.1494 4.77438 11.8758 7.49757 9.01277H0.14209V0.746002H8.40886V7.5453L8.5944 7.54454L11.9725 0.746002H18.2245V7.50218L18.4099 7.50188L21.9148 0.74585H31.0596ZM84.8565 17.9029H87.5189V2.62086H84.8565V17.9029ZM70.1789 17.7469C70.7575 17.9874 71.3459 18.1077 71.9441 18.1077C72.9323 18.1077 73.8165 17.8672 74.5967 17.386C75.3768 16.905 75.9816 16.2418 76.4107 15.3966C76.8398 14.5449 77.0543 13.5793 77.0543 12.5001C77.0543 11.4208 76.8332 10.4554 76.3912 9.60365C75.949 8.75194 75.3346 8.09202 74.5479 7.6239C73.7612 7.14929 72.8672 6.91524 71.866 6.92173C71.2289 6.92173 70.6177 7.04527 70.0325 7.29233C69.4474 7.53939 68.9598 7.89048 68.5697 8.34559C68.5396 8.38024 68.5103 8.41523 68.4819 8.45058V2.63067H65.8098V17.903H68.4624L68.4571 16.4763C68.5257 16.5604 68.5991 16.6426 68.6769 16.7229C69.0995 17.1586 69.6002 17.4998 70.1789 17.7469ZM72.9095 15.2796C72.4739 15.5462 71.9765 15.6794 71.4174 15.6794C70.8647 15.6794 70.3576 15.5428 69.896 15.2698C69.4343 14.9902 69.0671 14.6099 68.7939 14.1288C68.5274 13.6477 68.3941 13.1015 68.3941 12.4903C68.3877 11.8792 68.5176 11.3331 68.7842 10.852C69.0573 10.3643 69.4246 9.98724 69.8863 9.72068C70.3478 9.44761 70.8583 9.31433 71.4174 9.32083C71.9765 9.31433 72.4739 9.44436 72.9095 9.71093C73.3516 9.97099 73.6897 10.3448 73.9238 10.8325C74.1643 11.3136 74.2846 11.8662 74.2846 12.4903C74.2846 13.1145 74.1643 13.6672 73.9238 14.1483C73.6897 14.6294 73.3516 15.0065 72.9095 15.2796ZM34.9166 3.54738H37.9594L40.6812 13.4877L43.5768 3.54738H46.1124L49.2527 13.2882L51.8664 3.54738H54.6555L50.54 17.903H47.9166L44.7233 8.38692L41.7921 17.903H39.1394L34.9166 3.54738ZM59.1492 18.1565C58.0893 18.163 57.1336 17.9289 56.2819 17.4543C55.4367 16.9732 54.7703 16.3067 54.2826 15.455C53.8016 14.6034 53.561 13.6314 53.561 12.539C53.561 11.4793 53.8081 10.5203 54.3022 9.66212C54.7963 8.8039 55.4659 8.13424 56.3112 7.65312C57.1564 7.172 58.0991 6.93144 59.1393 6.93144C60.3097 6.93144 61.3336 7.1915 62.2114 7.71163C63.0956 8.23176 63.7555 8.9697 64.1911 9.92543C64.6332 10.8747 64.7925 11.9637 64.669 13.1925H56.3154C56.3387 13.682 56.4609 14.1274 56.6818 14.5286C56.9289 14.9707 57.2734 15.3152 57.7155 15.5623C58.1577 15.8094 58.6517 15.9329 59.1979 15.9329C59.614 15.9264 60.0009 15.8549 60.3584 15.7184C60.7161 15.5754 61.0183 15.3836 61.2654 15.1429C61.519 14.9024 61.6978 14.6294 61.8018 14.3238H64.591C64.4219 15.0715 64.0839 15.7379 63.5768 16.323C63.0696 16.9017 62.4325 17.3535 61.6652 17.6786C60.8981 18.0037 60.0594 18.163 59.1492 18.1565ZM56.6915 10.5106C56.5358 10.7823 56.4277 11.0748 56.3676 11.3883H61.9051C61.865 10.9923 61.7427 10.6315 61.5385 10.3058C61.3044 9.92218 60.9858 9.62636 60.5828 9.41831C60.1797 9.20375 59.7246 9.09648 59.2174 9.09648C58.6778 9.09648 58.1869 9.22001 57.7448 9.46707C57.3027 9.71413 56.9516 10.062 56.6915 10.5106ZM79.0148 7.15577C79.0148 6.28456 79.2131 5.51086 79.6097 4.83469C80.0062 4.15203 80.5622 3.62214 81.2774 3.24505C81.999 2.86145 82.841 2.66315 83.8032 2.65016V5.01999C83.3546 5.02649 82.971 5.12076 82.6525 5.30281C82.3404 5.47836 82.0998 5.73517 81.9308 6.07325C81.7752 6.3845 81.6912 6.74534 81.6789 7.15577H83.7447V9.40858H81.6773V17.903H79.0148V9.40858H77.2984V7.15577H79.0148ZM94.2867 18.1369C93.2009 18.1369 92.2289 17.8996 91.3707 17.425C90.519 16.9439 89.8493 16.2808 89.3617 15.4355C88.8805 14.5838 88.64 13.6183 88.64 12.539C88.64 11.4533 88.8805 10.4845 89.3617 9.63281C89.8493 8.77459 90.519 8.10818 91.3707 7.63357C92.2289 7.15895 93.2009 6.92164 94.2867 6.92164C95.3789 6.92164 96.3542 7.15895 97.2123 7.63357C98.0771 8.10818 98.7501 8.77135 99.2311 9.62306C99.7122 10.4748 99.9561 11.4468 99.9626 12.539C99.9561 13.6183 99.7122 14.5838 99.2311 15.4355C98.7565 16.2808 98.0868 16.9439 97.2221 17.425C96.3574 17.8996 95.3789 18.1369 94.2867 18.1369ZM94.2867 15.6891C94.8588 15.6891 95.3659 15.559 95.808 15.299C96.2502 15.0324 96.5914 14.6618 96.8321 14.1872C97.0726 13.7061 97.1928 13.1567 97.1928 12.539C97.1928 11.9149 97.0726 11.3622 96.8321 10.8811C96.5914 10.4 96.2502 10.0294 95.808 9.76935C95.3659 9.50278 94.8588 9.3695 94.2867 9.3695C93.7211 9.3695 93.2172 9.50278 92.775 9.76935C92.3395 10.0294 92.0013 10.4 91.7608 10.8811C91.5202 11.3622 91.4032 11.9149 91.4097 12.539C91.4097 13.1567 91.53 13.7061 91.7705 14.1872C92.0176 14.6618 92.3556 15.0324 92.7848 15.299C93.2204 15.559 93.7211 15.6891 94.2867 15.6891ZM102.84 7.15575H99.8749L103.083 17.903H105.678L107.788 11.0387L110.066 17.903H112.621L115.84 7.15575H113.158L111.332 13.8452L109.315 7.15575H106.721L104.713 13.9925L102.84 7.15575Z" fill="black"/>
</svg>
